<mxfile host="app.diagrams.net" modified="2024-05-30T20:10:44.606Z" agent="Mozilla/5.0 (X11; Linux x86_64) AppleWebKit/537.36 (KHTML, like Gecko) Chrome/125.0.0.0 Safari/537.36" version="24.4.10" etag="VjPUXG_PtA-_9nLwsnVc" type="github">
  <diagram name="Page-1" id="JP61x_WN5rWR1E8gvtAR">
    <mxGraphModel>
      <root>
        <mxCell id="0" />
        <mxCell id="1" parent="0" />
      </root>
    </mxGraphModel>
  </diagram>
</mxfile>
